<mxfile host="app.diagrams.net" agent="Mozilla/5.0 (Macintosh; Intel Mac OS X 10_15_7) AppleWebKit/537.36 (KHTML, like Gecko) Chrome/130.0.0.0 Safari/537.36 Edg/130.0.0.0" version="24.8.0" pages="2">
  <diagram name="Ticket list" id="03018318-947c-dd8e-b7a3-06fadd420f32">
    <mxGraphModel dx="1186" dy="791" grid="1" gridSize="10" guides="1" tooltips="1" connect="1" arrows="1" fold="1" page="1" pageScale="1" pageWidth="1100" pageHeight="850" background="none" math="0" shadow="0">
      <root>
        <mxCell id="0" />
        <mxCell id="1" parent="0" />
        <mxCell id="PBXUd41XZLNh5BjM9wRH-1" value="" style="whiteSpace=wrap;html=1;fillColor=none;strokeWidth=2;" vertex="1" parent="1">
          <mxGeometry x="20" y="20" width="1060" height="810" as="geometry" />
        </mxCell>
        <mxCell id="PBXUd41XZLNh5BjM9wRH-2" value="Logo" style="ellipse;whiteSpace=wrap;html=1;aspect=fixed;" vertex="1" parent="1">
          <mxGeometry x="65" y="50" width="150" height="150" as="geometry" />
        </mxCell>
        <mxCell id="PBXUd41XZLNh5BjM9wRH-3" value="" style="rounded=0;whiteSpace=wrap;html=1;fillColor=none;strokeWidth=2;" vertex="1" parent="1">
          <mxGeometry x="260" y="35" width="800" height="70" as="geometry" />
        </mxCell>
        <mxCell id="PBXUd41XZLNh5BjM9wRH-4" value="" style="rounded=0;whiteSpace=wrap;html=1;fillColor=none;strokeWidth=2;" vertex="1" parent="1">
          <mxGeometry x="40" y="35" width="200" height="780" as="geometry" />
        </mxCell>
        <mxCell id="PBXUd41XZLNh5BjM9wRH-5" value="&lt;span style=&quot;font-size: 18px;&quot;&gt;Ticket List&lt;/span&gt;" style="text;html=1;strokeColor=none;fillColor=none;align=center;verticalAlign=middle;whiteSpace=wrap;rounded=0;" vertex="1" parent="1">
          <mxGeometry x="270" y="55" width="140" height="30" as="geometry" />
        </mxCell>
        <mxCell id="PBXUd41XZLNh5BjM9wRH-6" value="&lt;font style=&quot;font-size: 18px;&quot;&gt;Full Name&lt;br&gt;&lt;/font&gt;" style="text;html=1;strokeColor=none;fillColor=none;align=center;verticalAlign=middle;whiteSpace=wrap;rounded=0;" vertex="1" parent="1">
          <mxGeometry x="895" y="55" width="140" height="30" as="geometry" />
        </mxCell>
        <mxCell id="PBXUd41XZLNh5BjM9wRH-7" value="Dashboard" style="rounded=0;whiteSpace=wrap;html=1;fillColor=none;" vertex="1" parent="1">
          <mxGeometry x="50" y="280" width="180" height="30" as="geometry" />
        </mxCell>
        <mxCell id="PBXUd41XZLNh5BjM9wRH-8" value="Ticket List" style="rounded=0;whiteSpace=wrap;html=1;fillColor=none;" vertex="1" parent="1">
          <mxGeometry x="50" y="330" width="180" height="30" as="geometry" />
        </mxCell>
        <mxCell id="PBXUd41XZLNh5BjM9wRH-9" value="&lt;&lt; Prev 1 2 3 4 5 6 7 8 9 10 Next &gt;&gt;" style="strokeWidth=1;shadow=0;dashed=0;align=center;html=1;shape=mxgraph.mockup.navigation.pagination;linkText=;fontSize=17;fontColor=#0000ff;fontStyle=4;" vertex="1" parent="1">
          <mxGeometry x="270" y="450" width="350" height="30" as="geometry" />
        </mxCell>
        <mxCell id="PBXUd41XZLNh5BjM9wRH-10" value="" style="group" vertex="1" connectable="0" parent="1">
          <mxGeometry x="305" y="208.73" width="710" height="222.54" as="geometry" />
        </mxCell>
        <mxCell id="PBXUd41XZLNh5BjM9wRH-11" value="" style="shape=table;html=1;whiteSpace=wrap;startSize=0;container=1;collapsible=0;childLayout=tableLayout;strokeWidth=2;" vertex="1" parent="PBXUd41XZLNh5BjM9wRH-10">
          <mxGeometry width="236.66666666666663" height="111.27000000000001" as="geometry" />
        </mxCell>
        <mxCell id="PBXUd41XZLNh5BjM9wRH-12" value="" style="shape=tableRow;horizontal=0;startSize=0;swimlaneHead=0;swimlaneBody=0;top=0;left=0;bottom=0;right=0;collapsible=0;dropTarget=0;fillColor=none;points=[[0,0.5],[1,0.5]];portConstraint=eastwest;" vertex="1" parent="PBXUd41XZLNh5BjM9wRH-11">
          <mxGeometry width="236.66666666666663" height="37" as="geometry" />
        </mxCell>
        <mxCell id="PBXUd41XZLNh5BjM9wRH-13" value="ID Ticket" style="shape=partialRectangle;html=1;whiteSpace=wrap;connectable=0;fillColor=none;top=0;left=0;bottom=0;right=0;overflow=hidden;fontStyle=1" vertex="1" parent="PBXUd41XZLNh5BjM9wRH-12">
          <mxGeometry width="118" height="37" as="geometry">
            <mxRectangle width="118" height="37" as="alternateBounds" />
          </mxGeometry>
        </mxCell>
        <mxCell id="PBXUd41XZLNh5BjM9wRH-14" value="Nama Ticket" style="shape=partialRectangle;html=1;whiteSpace=wrap;connectable=0;fillColor=none;top=0;left=0;bottom=0;right=0;overflow=hidden;fontStyle=1" vertex="1" parent="PBXUd41XZLNh5BjM9wRH-12">
          <mxGeometry x="118" width="119" height="37" as="geometry">
            <mxRectangle width="119" height="37" as="alternateBounds" />
          </mxGeometry>
        </mxCell>
        <mxCell id="PBXUd41XZLNh5BjM9wRH-15" value="" style="shape=tableRow;horizontal=0;startSize=0;swimlaneHead=0;swimlaneBody=0;top=0;left=0;bottom=0;right=0;collapsible=0;dropTarget=0;fillColor=none;points=[[0,0.5],[1,0.5]];portConstraint=eastwest;" vertex="1" parent="PBXUd41XZLNh5BjM9wRH-11">
          <mxGeometry y="37" width="236.66666666666663" height="37" as="geometry" />
        </mxCell>
        <mxCell id="PBXUd41XZLNh5BjM9wRH-16" value="" style="shape=partialRectangle;html=1;whiteSpace=wrap;connectable=0;fillColor=none;top=0;left=0;bottom=0;right=0;overflow=hidden;" vertex="1" parent="PBXUd41XZLNh5BjM9wRH-15">
          <mxGeometry width="118" height="37" as="geometry">
            <mxRectangle width="118" height="37" as="alternateBounds" />
          </mxGeometry>
        </mxCell>
        <mxCell id="PBXUd41XZLNh5BjM9wRH-17" value="" style="shape=partialRectangle;html=1;whiteSpace=wrap;connectable=0;fillColor=none;top=0;left=0;bottom=0;right=0;overflow=hidden;" vertex="1" parent="PBXUd41XZLNh5BjM9wRH-15">
          <mxGeometry x="118" width="119" height="37" as="geometry">
            <mxRectangle width="119" height="37" as="alternateBounds" />
          </mxGeometry>
        </mxCell>
        <mxCell id="PBXUd41XZLNh5BjM9wRH-18" value="" style="shape=tableRow;horizontal=0;startSize=0;swimlaneHead=0;swimlaneBody=0;top=0;left=0;bottom=0;right=0;collapsible=0;dropTarget=0;fillColor=none;points=[[0,0.5],[1,0.5]];portConstraint=eastwest;" vertex="1" parent="PBXUd41XZLNh5BjM9wRH-11">
          <mxGeometry y="74" width="236.66666666666663" height="37" as="geometry" />
        </mxCell>
        <mxCell id="PBXUd41XZLNh5BjM9wRH-19" value="" style="shape=partialRectangle;html=1;whiteSpace=wrap;connectable=0;fillColor=none;top=0;left=0;bottom=0;right=0;overflow=hidden;" vertex="1" parent="PBXUd41XZLNh5BjM9wRH-18">
          <mxGeometry width="118" height="37" as="geometry">
            <mxRectangle width="118" height="37" as="alternateBounds" />
          </mxGeometry>
        </mxCell>
        <mxCell id="PBXUd41XZLNh5BjM9wRH-20" value="" style="shape=partialRectangle;html=1;whiteSpace=wrap;connectable=0;fillColor=none;top=0;left=0;bottom=0;right=0;overflow=hidden;" vertex="1" parent="PBXUd41XZLNh5BjM9wRH-18">
          <mxGeometry x="118" width="119" height="37" as="geometry">
            <mxRectangle width="119" height="37" as="alternateBounds" />
          </mxGeometry>
        </mxCell>
        <mxCell id="PBXUd41XZLNh5BjM9wRH-21" value="" style="shape=table;html=1;whiteSpace=wrap;startSize=0;container=1;collapsible=0;childLayout=tableLayout;strokeWidth=2;" vertex="1" parent="PBXUd41XZLNh5BjM9wRH-10">
          <mxGeometry x="236.66666666666663" width="236.66666666666663" height="111.27000000000001" as="geometry" />
        </mxCell>
        <mxCell id="PBXUd41XZLNh5BjM9wRH-22" value="" style="shape=tableRow;horizontal=0;startSize=0;swimlaneHead=0;swimlaneBody=0;top=0;left=0;bottom=0;right=0;collapsible=0;dropTarget=0;fillColor=none;points=[[0,0.5],[1,0.5]];portConstraint=eastwest;" vertex="1" parent="PBXUd41XZLNh5BjM9wRH-21">
          <mxGeometry width="236.66666666666663" height="37" as="geometry" />
        </mxCell>
        <mxCell id="PBXUd41XZLNh5BjM9wRH-23" value="Agent Name" style="shape=partialRectangle;html=1;whiteSpace=wrap;connectable=0;fillColor=none;top=0;left=0;bottom=0;right=0;overflow=hidden;fontStyle=1" vertex="1" parent="PBXUd41XZLNh5BjM9wRH-22">
          <mxGeometry width="118" height="37" as="geometry">
            <mxRectangle width="118" height="37" as="alternateBounds" />
          </mxGeometry>
        </mxCell>
        <mxCell id="PBXUd41XZLNh5BjM9wRH-24" value="Description" style="shape=partialRectangle;html=1;whiteSpace=wrap;connectable=0;fillColor=none;top=0;left=0;bottom=0;right=0;overflow=hidden;fontStyle=1" vertex="1" parent="PBXUd41XZLNh5BjM9wRH-22">
          <mxGeometry x="118" width="119" height="37" as="geometry">
            <mxRectangle width="119" height="37" as="alternateBounds" />
          </mxGeometry>
        </mxCell>
        <mxCell id="PBXUd41XZLNh5BjM9wRH-25" value="" style="shape=tableRow;horizontal=0;startSize=0;swimlaneHead=0;swimlaneBody=0;top=0;left=0;bottom=0;right=0;collapsible=0;dropTarget=0;fillColor=none;points=[[0,0.5],[1,0.5]];portConstraint=eastwest;" vertex="1" parent="PBXUd41XZLNh5BjM9wRH-21">
          <mxGeometry y="37" width="236.66666666666663" height="37" as="geometry" />
        </mxCell>
        <mxCell id="PBXUd41XZLNh5BjM9wRH-26" value="" style="shape=partialRectangle;html=1;whiteSpace=wrap;connectable=0;fillColor=none;top=0;left=0;bottom=0;right=0;overflow=hidden;" vertex="1" parent="PBXUd41XZLNh5BjM9wRH-25">
          <mxGeometry width="118" height="37" as="geometry">
            <mxRectangle width="118" height="37" as="alternateBounds" />
          </mxGeometry>
        </mxCell>
        <mxCell id="PBXUd41XZLNh5BjM9wRH-27" value="" style="shape=partialRectangle;html=1;whiteSpace=wrap;connectable=0;fillColor=none;top=0;left=0;bottom=0;right=0;overflow=hidden;" vertex="1" parent="PBXUd41XZLNh5BjM9wRH-25">
          <mxGeometry x="118" width="119" height="37" as="geometry">
            <mxRectangle width="119" height="37" as="alternateBounds" />
          </mxGeometry>
        </mxCell>
        <mxCell id="PBXUd41XZLNh5BjM9wRH-28" value="" style="shape=tableRow;horizontal=0;startSize=0;swimlaneHead=0;swimlaneBody=0;top=0;left=0;bottom=0;right=0;collapsible=0;dropTarget=0;fillColor=none;points=[[0,0.5],[1,0.5]];portConstraint=eastwest;" vertex="1" parent="PBXUd41XZLNh5BjM9wRH-21">
          <mxGeometry y="74" width="236.66666666666663" height="37" as="geometry" />
        </mxCell>
        <mxCell id="PBXUd41XZLNh5BjM9wRH-29" value="" style="shape=partialRectangle;html=1;whiteSpace=wrap;connectable=0;fillColor=none;top=0;left=0;bottom=0;right=0;overflow=hidden;" vertex="1" parent="PBXUd41XZLNh5BjM9wRH-28">
          <mxGeometry width="118" height="37" as="geometry">
            <mxRectangle width="118" height="37" as="alternateBounds" />
          </mxGeometry>
        </mxCell>
        <mxCell id="PBXUd41XZLNh5BjM9wRH-30" value="" style="shape=partialRectangle;html=1;whiteSpace=wrap;connectable=0;fillColor=none;top=0;left=0;bottom=0;right=0;overflow=hidden;" vertex="1" parent="PBXUd41XZLNh5BjM9wRH-28">
          <mxGeometry x="118" width="119" height="37" as="geometry">
            <mxRectangle width="119" height="37" as="alternateBounds" />
          </mxGeometry>
        </mxCell>
        <mxCell id="PBXUd41XZLNh5BjM9wRH-31" value="" style="shape=table;html=1;whiteSpace=wrap;startSize=0;container=1;collapsible=0;childLayout=tableLayout;strokeWidth=2;" vertex="1" parent="PBXUd41XZLNh5BjM9wRH-10">
          <mxGeometry x="473.33333333333326" width="236.66666666666663" height="111.27000000000001" as="geometry" />
        </mxCell>
        <mxCell id="PBXUd41XZLNh5BjM9wRH-32" value="" style="shape=tableRow;horizontal=0;startSize=0;swimlaneHead=0;swimlaneBody=0;top=0;left=0;bottom=0;right=0;collapsible=0;dropTarget=0;fillColor=none;points=[[0,0.5],[1,0.5]];portConstraint=eastwest;" vertex="1" parent="PBXUd41XZLNh5BjM9wRH-31">
          <mxGeometry width="236.66666666666663" height="37" as="geometry" />
        </mxCell>
        <mxCell id="PBXUd41XZLNh5BjM9wRH-33" value="Status" style="shape=partialRectangle;html=1;whiteSpace=wrap;connectable=0;fillColor=none;top=0;left=0;bottom=0;right=0;overflow=hidden;fontStyle=1" vertex="1" parent="PBXUd41XZLNh5BjM9wRH-32">
          <mxGeometry width="118" height="37" as="geometry">
            <mxRectangle width="118" height="37" as="alternateBounds" />
          </mxGeometry>
        </mxCell>
        <mxCell id="PBXUd41XZLNh5BjM9wRH-34" value="Action" style="shape=partialRectangle;html=1;whiteSpace=wrap;connectable=0;fillColor=none;top=0;left=0;bottom=0;right=0;overflow=hidden;fontStyle=1" vertex="1" parent="PBXUd41XZLNh5BjM9wRH-32">
          <mxGeometry x="118" width="119" height="37" as="geometry">
            <mxRectangle width="119" height="37" as="alternateBounds" />
          </mxGeometry>
        </mxCell>
        <mxCell id="PBXUd41XZLNh5BjM9wRH-35" value="" style="shape=tableRow;horizontal=0;startSize=0;swimlaneHead=0;swimlaneBody=0;top=0;left=0;bottom=0;right=0;collapsible=0;dropTarget=0;fillColor=none;points=[[0,0.5],[1,0.5]];portConstraint=eastwest;" vertex="1" parent="PBXUd41XZLNh5BjM9wRH-31">
          <mxGeometry y="37" width="236.66666666666663" height="37" as="geometry" />
        </mxCell>
        <mxCell id="PBXUd41XZLNh5BjM9wRH-36" value="" style="shape=partialRectangle;html=1;whiteSpace=wrap;connectable=0;fillColor=none;top=0;left=0;bottom=0;right=0;overflow=hidden;" vertex="1" parent="PBXUd41XZLNh5BjM9wRH-35">
          <mxGeometry width="118" height="37" as="geometry">
            <mxRectangle width="118" height="37" as="alternateBounds" />
          </mxGeometry>
        </mxCell>
        <mxCell id="PBXUd41XZLNh5BjM9wRH-37" value="" style="shape=partialRectangle;html=1;whiteSpace=wrap;connectable=0;fillColor=none;top=0;left=0;bottom=0;right=0;overflow=hidden;" vertex="1" parent="PBXUd41XZLNh5BjM9wRH-35">
          <mxGeometry x="118" width="119" height="37" as="geometry">
            <mxRectangle width="119" height="37" as="alternateBounds" />
          </mxGeometry>
        </mxCell>
        <mxCell id="PBXUd41XZLNh5BjM9wRH-38" value="" style="shape=tableRow;horizontal=0;startSize=0;swimlaneHead=0;swimlaneBody=0;top=0;left=0;bottom=0;right=0;collapsible=0;dropTarget=0;fillColor=none;points=[[0,0.5],[1,0.5]];portConstraint=eastwest;" vertex="1" parent="PBXUd41XZLNh5BjM9wRH-31">
          <mxGeometry y="74" width="236.66666666666663" height="37" as="geometry" />
        </mxCell>
        <mxCell id="PBXUd41XZLNh5BjM9wRH-39" value="" style="shape=partialRectangle;html=1;whiteSpace=wrap;connectable=0;fillColor=none;top=0;left=0;bottom=0;right=0;overflow=hidden;" vertex="1" parent="PBXUd41XZLNh5BjM9wRH-38">
          <mxGeometry width="118" height="37" as="geometry">
            <mxRectangle width="118" height="37" as="alternateBounds" />
          </mxGeometry>
        </mxCell>
        <mxCell id="PBXUd41XZLNh5BjM9wRH-40" value="" style="shape=partialRectangle;html=1;whiteSpace=wrap;connectable=0;fillColor=none;top=0;left=0;bottom=0;right=0;overflow=hidden;" vertex="1" parent="PBXUd41XZLNh5BjM9wRH-38">
          <mxGeometry x="118" width="119" height="37" as="geometry">
            <mxRectangle width="119" height="37" as="alternateBounds" />
          </mxGeometry>
        </mxCell>
        <mxCell id="PBXUd41XZLNh5BjM9wRH-41" value="" style="shape=table;html=1;whiteSpace=wrap;startSize=0;container=1;collapsible=0;childLayout=tableLayout;strokeWidth=2;" vertex="1" parent="PBXUd41XZLNh5BjM9wRH-10">
          <mxGeometry x="236.66666666666663" y="111.27000000000001" width="236.66666666666663" height="111.27000000000001" as="geometry" />
        </mxCell>
        <mxCell id="PBXUd41XZLNh5BjM9wRH-42" value="" style="shape=tableRow;horizontal=0;startSize=0;swimlaneHead=0;swimlaneBody=0;top=0;left=0;bottom=0;right=0;collapsible=0;dropTarget=0;fillColor=none;points=[[0,0.5],[1,0.5]];portConstraint=eastwest;" vertex="1" parent="PBXUd41XZLNh5BjM9wRH-41">
          <mxGeometry width="236.66666666666663" height="37" as="geometry" />
        </mxCell>
        <mxCell id="PBXUd41XZLNh5BjM9wRH-43" value="" style="shape=partialRectangle;html=1;whiteSpace=wrap;connectable=0;fillColor=none;top=0;left=0;bottom=0;right=0;overflow=hidden;fontStyle=1" vertex="1" parent="PBXUd41XZLNh5BjM9wRH-42">
          <mxGeometry width="118" height="37" as="geometry">
            <mxRectangle width="118" height="37" as="alternateBounds" />
          </mxGeometry>
        </mxCell>
        <mxCell id="PBXUd41XZLNh5BjM9wRH-44" value="" style="shape=partialRectangle;html=1;whiteSpace=wrap;connectable=0;fillColor=none;top=0;left=0;bottom=0;right=0;overflow=hidden;fontStyle=1" vertex="1" parent="PBXUd41XZLNh5BjM9wRH-42">
          <mxGeometry x="118" width="119" height="37" as="geometry">
            <mxRectangle width="119" height="37" as="alternateBounds" />
          </mxGeometry>
        </mxCell>
        <mxCell id="PBXUd41XZLNh5BjM9wRH-45" value="" style="shape=tableRow;horizontal=0;startSize=0;swimlaneHead=0;swimlaneBody=0;top=0;left=0;bottom=0;right=0;collapsible=0;dropTarget=0;fillColor=none;points=[[0,0.5],[1,0.5]];portConstraint=eastwest;" vertex="1" parent="PBXUd41XZLNh5BjM9wRH-41">
          <mxGeometry y="37" width="236.66666666666663" height="37" as="geometry" />
        </mxCell>
        <mxCell id="PBXUd41XZLNh5BjM9wRH-46" value="" style="shape=partialRectangle;html=1;whiteSpace=wrap;connectable=0;fillColor=none;top=0;left=0;bottom=0;right=0;overflow=hidden;" vertex="1" parent="PBXUd41XZLNh5BjM9wRH-45">
          <mxGeometry width="118" height="37" as="geometry">
            <mxRectangle width="118" height="37" as="alternateBounds" />
          </mxGeometry>
        </mxCell>
        <mxCell id="PBXUd41XZLNh5BjM9wRH-47" value="" style="shape=partialRectangle;html=1;whiteSpace=wrap;connectable=0;fillColor=none;top=0;left=0;bottom=0;right=0;overflow=hidden;" vertex="1" parent="PBXUd41XZLNh5BjM9wRH-45">
          <mxGeometry x="118" width="119" height="37" as="geometry">
            <mxRectangle width="119" height="37" as="alternateBounds" />
          </mxGeometry>
        </mxCell>
        <mxCell id="PBXUd41XZLNh5BjM9wRH-48" value="" style="shape=tableRow;horizontal=0;startSize=0;swimlaneHead=0;swimlaneBody=0;top=0;left=0;bottom=0;right=0;collapsible=0;dropTarget=0;fillColor=none;points=[[0,0.5],[1,0.5]];portConstraint=eastwest;" vertex="1" parent="PBXUd41XZLNh5BjM9wRH-41">
          <mxGeometry y="74" width="236.66666666666663" height="37" as="geometry" />
        </mxCell>
        <mxCell id="PBXUd41XZLNh5BjM9wRH-49" value="" style="shape=partialRectangle;html=1;whiteSpace=wrap;connectable=0;fillColor=none;top=0;left=0;bottom=0;right=0;overflow=hidden;" vertex="1" parent="PBXUd41XZLNh5BjM9wRH-48">
          <mxGeometry width="118" height="37" as="geometry">
            <mxRectangle width="118" height="37" as="alternateBounds" />
          </mxGeometry>
        </mxCell>
        <mxCell id="PBXUd41XZLNh5BjM9wRH-50" value="" style="shape=partialRectangle;html=1;whiteSpace=wrap;connectable=0;fillColor=none;top=0;left=0;bottom=0;right=0;overflow=hidden;" vertex="1" parent="PBXUd41XZLNh5BjM9wRH-48">
          <mxGeometry x="118" width="119" height="37" as="geometry">
            <mxRectangle width="119" height="37" as="alternateBounds" />
          </mxGeometry>
        </mxCell>
        <mxCell id="PBXUd41XZLNh5BjM9wRH-51" value="" style="shape=table;html=1;whiteSpace=wrap;startSize=0;container=1;collapsible=0;childLayout=tableLayout;strokeWidth=2;" vertex="1" parent="PBXUd41XZLNh5BjM9wRH-10">
          <mxGeometry y="111.27000000000001" width="236.66666666666663" height="111.27000000000001" as="geometry" />
        </mxCell>
        <mxCell id="PBXUd41XZLNh5BjM9wRH-52" value="" style="shape=tableRow;horizontal=0;startSize=0;swimlaneHead=0;swimlaneBody=0;top=0;left=0;bottom=0;right=0;collapsible=0;dropTarget=0;fillColor=none;points=[[0,0.5],[1,0.5]];portConstraint=eastwest;" vertex="1" parent="PBXUd41XZLNh5BjM9wRH-51">
          <mxGeometry width="236.66666666666663" height="37" as="geometry" />
        </mxCell>
        <mxCell id="PBXUd41XZLNh5BjM9wRH-53" value="" style="shape=partialRectangle;html=1;whiteSpace=wrap;connectable=0;fillColor=none;top=0;left=0;bottom=0;right=0;overflow=hidden;fontStyle=1" vertex="1" parent="PBXUd41XZLNh5BjM9wRH-52">
          <mxGeometry width="118" height="37" as="geometry">
            <mxRectangle width="118" height="37" as="alternateBounds" />
          </mxGeometry>
        </mxCell>
        <mxCell id="PBXUd41XZLNh5BjM9wRH-54" value="" style="shape=partialRectangle;html=1;whiteSpace=wrap;connectable=0;fillColor=none;top=0;left=0;bottom=0;right=0;overflow=hidden;fontStyle=1" vertex="1" parent="PBXUd41XZLNh5BjM9wRH-52">
          <mxGeometry x="118" width="119" height="37" as="geometry">
            <mxRectangle width="119" height="37" as="alternateBounds" />
          </mxGeometry>
        </mxCell>
        <mxCell id="PBXUd41XZLNh5BjM9wRH-55" value="" style="shape=tableRow;horizontal=0;startSize=0;swimlaneHead=0;swimlaneBody=0;top=0;left=0;bottom=0;right=0;collapsible=0;dropTarget=0;fillColor=none;points=[[0,0.5],[1,0.5]];portConstraint=eastwest;" vertex="1" parent="PBXUd41XZLNh5BjM9wRH-51">
          <mxGeometry y="37" width="236.66666666666663" height="37" as="geometry" />
        </mxCell>
        <mxCell id="PBXUd41XZLNh5BjM9wRH-56" value="" style="shape=partialRectangle;html=1;whiteSpace=wrap;connectable=0;fillColor=none;top=0;left=0;bottom=0;right=0;overflow=hidden;" vertex="1" parent="PBXUd41XZLNh5BjM9wRH-55">
          <mxGeometry width="118" height="37" as="geometry">
            <mxRectangle width="118" height="37" as="alternateBounds" />
          </mxGeometry>
        </mxCell>
        <mxCell id="PBXUd41XZLNh5BjM9wRH-57" value="" style="shape=partialRectangle;html=1;whiteSpace=wrap;connectable=0;fillColor=none;top=0;left=0;bottom=0;right=0;overflow=hidden;" vertex="1" parent="PBXUd41XZLNh5BjM9wRH-55">
          <mxGeometry x="118" width="119" height="37" as="geometry">
            <mxRectangle width="119" height="37" as="alternateBounds" />
          </mxGeometry>
        </mxCell>
        <mxCell id="PBXUd41XZLNh5BjM9wRH-58" value="" style="shape=tableRow;horizontal=0;startSize=0;swimlaneHead=0;swimlaneBody=0;top=0;left=0;bottom=0;right=0;collapsible=0;dropTarget=0;fillColor=none;points=[[0,0.5],[1,0.5]];portConstraint=eastwest;" vertex="1" parent="PBXUd41XZLNh5BjM9wRH-51">
          <mxGeometry y="74" width="236.66666666666663" height="37" as="geometry" />
        </mxCell>
        <mxCell id="PBXUd41XZLNh5BjM9wRH-59" value="" style="shape=partialRectangle;html=1;whiteSpace=wrap;connectable=0;fillColor=none;top=0;left=0;bottom=0;right=0;overflow=hidden;" vertex="1" parent="PBXUd41XZLNh5BjM9wRH-58">
          <mxGeometry width="118" height="37" as="geometry">
            <mxRectangle width="118" height="37" as="alternateBounds" />
          </mxGeometry>
        </mxCell>
        <mxCell id="PBXUd41XZLNh5BjM9wRH-60" value="" style="shape=partialRectangle;html=1;whiteSpace=wrap;connectable=0;fillColor=none;top=0;left=0;bottom=0;right=0;overflow=hidden;" vertex="1" parent="PBXUd41XZLNh5BjM9wRH-58">
          <mxGeometry x="118" width="119" height="37" as="geometry">
            <mxRectangle width="119" height="37" as="alternateBounds" />
          </mxGeometry>
        </mxCell>
        <mxCell id="PBXUd41XZLNh5BjM9wRH-61" value="" style="shape=table;html=1;whiteSpace=wrap;startSize=0;container=1;collapsible=0;childLayout=tableLayout;strokeWidth=2;" vertex="1" parent="PBXUd41XZLNh5BjM9wRH-10">
          <mxGeometry x="473.33333333333326" y="111.27000000000001" width="236.66666666666663" height="111.27000000000001" as="geometry" />
        </mxCell>
        <mxCell id="PBXUd41XZLNh5BjM9wRH-62" value="" style="shape=tableRow;horizontal=0;startSize=0;swimlaneHead=0;swimlaneBody=0;top=0;left=0;bottom=0;right=0;collapsible=0;dropTarget=0;fillColor=none;points=[[0,0.5],[1,0.5]];portConstraint=eastwest;" vertex="1" parent="PBXUd41XZLNh5BjM9wRH-61">
          <mxGeometry width="236.66666666666663" height="37" as="geometry" />
        </mxCell>
        <mxCell id="PBXUd41XZLNh5BjM9wRH-63" value="" style="shape=partialRectangle;html=1;whiteSpace=wrap;connectable=0;fillColor=none;top=0;left=0;bottom=0;right=0;overflow=hidden;fontStyle=1" vertex="1" parent="PBXUd41XZLNh5BjM9wRH-62">
          <mxGeometry width="118" height="37" as="geometry">
            <mxRectangle width="118" height="37" as="alternateBounds" />
          </mxGeometry>
        </mxCell>
        <mxCell id="PBXUd41XZLNh5BjM9wRH-64" value="" style="shape=partialRectangle;html=1;whiteSpace=wrap;connectable=0;fillColor=none;top=0;left=0;bottom=0;right=0;overflow=hidden;fontStyle=1" vertex="1" parent="PBXUd41XZLNh5BjM9wRH-62">
          <mxGeometry x="118" width="119" height="37" as="geometry">
            <mxRectangle width="119" height="37" as="alternateBounds" />
          </mxGeometry>
        </mxCell>
        <mxCell id="PBXUd41XZLNh5BjM9wRH-65" value="" style="shape=tableRow;horizontal=0;startSize=0;swimlaneHead=0;swimlaneBody=0;top=0;left=0;bottom=0;right=0;collapsible=0;dropTarget=0;fillColor=none;points=[[0,0.5],[1,0.5]];portConstraint=eastwest;" vertex="1" parent="PBXUd41XZLNh5BjM9wRH-61">
          <mxGeometry y="37" width="236.66666666666663" height="37" as="geometry" />
        </mxCell>
        <mxCell id="PBXUd41XZLNh5BjM9wRH-66" value="" style="shape=partialRectangle;html=1;whiteSpace=wrap;connectable=0;fillColor=none;top=0;left=0;bottom=0;right=0;overflow=hidden;" vertex="1" parent="PBXUd41XZLNh5BjM9wRH-65">
          <mxGeometry width="118" height="37" as="geometry">
            <mxRectangle width="118" height="37" as="alternateBounds" />
          </mxGeometry>
        </mxCell>
        <mxCell id="PBXUd41XZLNh5BjM9wRH-67" value="" style="shape=partialRectangle;html=1;whiteSpace=wrap;connectable=0;fillColor=none;top=0;left=0;bottom=0;right=0;overflow=hidden;" vertex="1" parent="PBXUd41XZLNh5BjM9wRH-65">
          <mxGeometry x="118" width="119" height="37" as="geometry">
            <mxRectangle width="119" height="37" as="alternateBounds" />
          </mxGeometry>
        </mxCell>
        <mxCell id="PBXUd41XZLNh5BjM9wRH-68" value="" style="shape=tableRow;horizontal=0;startSize=0;swimlaneHead=0;swimlaneBody=0;top=0;left=0;bottom=0;right=0;collapsible=0;dropTarget=0;fillColor=none;points=[[0,0.5],[1,0.5]];portConstraint=eastwest;" vertex="1" parent="PBXUd41XZLNh5BjM9wRH-61">
          <mxGeometry y="74" width="236.66666666666663" height="37" as="geometry" />
        </mxCell>
        <mxCell id="PBXUd41XZLNh5BjM9wRH-69" value="" style="shape=partialRectangle;html=1;whiteSpace=wrap;connectable=0;fillColor=none;top=0;left=0;bottom=0;right=0;overflow=hidden;" vertex="1" parent="PBXUd41XZLNh5BjM9wRH-68">
          <mxGeometry width="118" height="37" as="geometry">
            <mxRectangle width="118" height="37" as="alternateBounds" />
          </mxGeometry>
        </mxCell>
        <mxCell id="PBXUd41XZLNh5BjM9wRH-70" value="" style="shape=partialRectangle;html=1;whiteSpace=wrap;connectable=0;fillColor=none;top=0;left=0;bottom=0;right=0;overflow=hidden;" vertex="1" parent="PBXUd41XZLNh5BjM9wRH-68">
          <mxGeometry x="118" width="119" height="37" as="geometry">
            <mxRectangle width="119" height="37" as="alternateBounds" />
          </mxGeometry>
        </mxCell>
        <mxCell id="PBXUd41XZLNh5BjM9wRH-71" value="View Detail" style="rounded=1;whiteSpace=wrap;html=1;" vertex="1" parent="PBXUd41XZLNh5BjM9wRH-10">
          <mxGeometry x="365" y="194.27" width="100" height="20" as="geometry" />
        </mxCell>
        <mxCell id="PBXUd41XZLNh5BjM9wRH-72" value="View Detail" style="rounded=1;whiteSpace=wrap;html=1;" vertex="1" parent="PBXUd41XZLNh5BjM9wRH-10">
          <mxGeometry x="365" y="156.9" width="100" height="20" as="geometry" />
        </mxCell>
        <mxCell id="PBXUd41XZLNh5BjM9wRH-73" value="View Detail" style="rounded=1;whiteSpace=wrap;html=1;" vertex="1" parent="PBXUd41XZLNh5BjM9wRH-10">
          <mxGeometry x="365" y="121.27000000000001" width="100" height="20" as="geometry" />
        </mxCell>
        <mxCell id="PBXUd41XZLNh5BjM9wRH-74" value="View Detail" style="rounded=1;whiteSpace=wrap;html=1;" vertex="1" parent="PBXUd41XZLNh5BjM9wRH-10">
          <mxGeometry x="365" y="81.27000000000001" width="100" height="20" as="geometry" />
        </mxCell>
        <mxCell id="PBXUd41XZLNh5BjM9wRH-75" value="View Detail" style="rounded=1;whiteSpace=wrap;html=1;" vertex="1" parent="PBXUd41XZLNh5BjM9wRH-10">
          <mxGeometry x="365" y="45.640000000000015" width="100" height="20" as="geometry" />
        </mxCell>
        <mxCell id="PBXUd41XZLNh5BjM9wRH-76" value="Open" style="rounded=1;whiteSpace=wrap;html=1;fillColor=#f8cecc;strokeColor=#b85450;" vertex="1" parent="PBXUd41XZLNh5BjM9wRH-10">
          <mxGeometry x="485" y="45.640000000000015" width="100" height="20" as="geometry" />
        </mxCell>
        <mxCell id="PBXUd41XZLNh5BjM9wRH-77" value="In Progress" style="rounded=1;whiteSpace=wrap;html=1;fillColor=#ffe6cc;strokeColor=#d79b00;" vertex="1" parent="PBXUd41XZLNh5BjM9wRH-10">
          <mxGeometry x="485" y="81.27000000000001" width="100" height="20" as="geometry" />
        </mxCell>
        <mxCell id="PBXUd41XZLNh5BjM9wRH-78" value="Closed" style="rounded=1;whiteSpace=wrap;html=1;fillColor=#d5e8d4;strokeColor=#82b366;" vertex="1" parent="PBXUd41XZLNh5BjM9wRH-10">
          <mxGeometry x="485" y="121.27000000000001" width="100" height="20" as="geometry" />
        </mxCell>
        <mxCell id="PBXUd41XZLNh5BjM9wRH-79" value="Closed" style="rounded=1;whiteSpace=wrap;html=1;fillColor=#d5e8d4;strokeColor=#82b366;" vertex="1" parent="PBXUd41XZLNh5BjM9wRH-10">
          <mxGeometry x="485" y="156.9" width="100" height="20" as="geometry" />
        </mxCell>
        <mxCell id="PBXUd41XZLNh5BjM9wRH-80" value="Closed" style="rounded=1;whiteSpace=wrap;html=1;fillColor=#d5e8d4;strokeColor=#82b366;" vertex="1" parent="PBXUd41XZLNh5BjM9wRH-10">
          <mxGeometry x="485" y="194.27" width="100" height="20" as="geometry" />
        </mxCell>
        <mxCell id="PBXUd41XZLNh5BjM9wRH-81" value="Edit" style="rounded=1;whiteSpace=wrap;html=1;" vertex="1" parent="PBXUd41XZLNh5BjM9wRH-10">
          <mxGeometry x="624" y="45.64" width="49" height="20" as="geometry" />
        </mxCell>
        <mxCell id="PBXUd41XZLNh5BjM9wRH-82" value="Edit" style="rounded=1;whiteSpace=wrap;html=1;" vertex="1" parent="PBXUd41XZLNh5BjM9wRH-10">
          <mxGeometry x="624" y="81.27000000000001" width="49" height="20" as="geometry" />
        </mxCell>
        <mxCell id="PBXUd41XZLNh5BjM9wRH-83" value="Edit" style="rounded=1;whiteSpace=wrap;html=1;" vertex="1" parent="PBXUd41XZLNh5BjM9wRH-10">
          <mxGeometry x="624" y="121.27000000000001" width="49" height="20" as="geometry" />
        </mxCell>
        <mxCell id="PBXUd41XZLNh5BjM9wRH-84" value="Edit" style="rounded=1;whiteSpace=wrap;html=1;" vertex="1" parent="PBXUd41XZLNh5BjM9wRH-10">
          <mxGeometry x="624" y="156.9" width="49" height="20" as="geometry" />
        </mxCell>
        <mxCell id="PBXUd41XZLNh5BjM9wRH-85" value="Edit" style="rounded=1;whiteSpace=wrap;html=1;" vertex="1" parent="PBXUd41XZLNh5BjM9wRH-10">
          <mxGeometry x="624" y="194.27" width="49" height="20" as="geometry" />
        </mxCell>
      </root>
    </mxGraphModel>
  </diagram>
  <diagram id="RtUvtmzOxhSrYIjnpddv" name="Dashboard">
    <mxGraphModel dx="1318" dy="879" grid="1" gridSize="10" guides="1" tooltips="1" connect="1" arrows="1" fold="1" page="1" pageScale="1" pageWidth="827" pageHeight="1169" math="0" shadow="0">
      <root>
        <mxCell id="0" />
        <mxCell id="1" parent="0" />
        <mxCell id="j3L5sBF7JgKgHJlYHV1M-1" value="" style="whiteSpace=wrap;html=1;fillColor=none;strokeWidth=2;" vertex="1" parent="1">
          <mxGeometry x="20" y="20" width="1060" height="810" as="geometry" />
        </mxCell>
        <mxCell id="j3L5sBF7JgKgHJlYHV1M-2" value="Logo" style="ellipse;whiteSpace=wrap;html=1;aspect=fixed;" vertex="1" parent="1">
          <mxGeometry x="65" y="50" width="150" height="150" as="geometry" />
        </mxCell>
        <mxCell id="j3L5sBF7JgKgHJlYHV1M-3" value="" style="rounded=0;whiteSpace=wrap;html=1;fillColor=none;strokeWidth=2;" vertex="1" parent="1">
          <mxGeometry x="260" y="35" width="800" height="70" as="geometry" />
        </mxCell>
        <mxCell id="j3L5sBF7JgKgHJlYHV1M-4" value="" style="rounded=0;whiteSpace=wrap;html=1;fillColor=none;strokeWidth=2;" vertex="1" parent="1">
          <mxGeometry x="40" y="35" width="200" height="780" as="geometry" />
        </mxCell>
        <mxCell id="j3L5sBF7JgKgHJlYHV1M-5" value="&lt;span style=&quot;font-size: 18px;&quot;&gt;Dashboard&lt;/span&gt;" style="text;html=1;strokeColor=none;fillColor=none;align=center;verticalAlign=middle;whiteSpace=wrap;rounded=0;" vertex="1" parent="1">
          <mxGeometry x="270" y="55" width="140" height="30" as="geometry" />
        </mxCell>
        <mxCell id="j3L5sBF7JgKgHJlYHV1M-6" value="&lt;font style=&quot;font-size: 18px;&quot;&gt;Full Name&lt;br&gt;&lt;/font&gt;" style="text;html=1;strokeColor=none;fillColor=none;align=center;verticalAlign=middle;whiteSpace=wrap;rounded=0;" vertex="1" parent="1">
          <mxGeometry x="895" y="55" width="140" height="30" as="geometry" />
        </mxCell>
        <mxCell id="j3L5sBF7JgKgHJlYHV1M-7" value="Dashboard" style="rounded=0;whiteSpace=wrap;html=1;fillColor=none;" vertex="1" parent="1">
          <mxGeometry x="50" y="280" width="180" height="30" as="geometry" />
        </mxCell>
        <mxCell id="j3L5sBF7JgKgHJlYHV1M-8" value="Ticket List" style="rounded=0;whiteSpace=wrap;html=1;fillColor=none;" vertex="1" parent="1">
          <mxGeometry x="50" y="330" width="180" height="30" as="geometry" />
        </mxCell>
        <mxCell id="j3L5sBF7JgKgHJlYHV1M-86" value="" style="rounded=1;whiteSpace=wrap;html=1;fillColor=none;" vertex="1" parent="1">
          <mxGeometry x="260" y="346" width="370" height="410" as="geometry" />
        </mxCell>
        <mxCell id="j3L5sBF7JgKgHJlYHV1M-87" value="" style="rounded=1;whiteSpace=wrap;html=1;fillColor=none;" vertex="1" parent="1">
          <mxGeometry x="690" y="346" width="370" height="410" as="geometry" />
        </mxCell>
        <mxCell id="j3L5sBF7JgKgHJlYHV1M-88" value="&lt;span style=&quot;font-size: 18px;&quot;&gt;Ticket On Progress&lt;/span&gt;" style="text;html=1;strokeColor=none;fillColor=none;align=center;verticalAlign=middle;whiteSpace=wrap;rounded=0;" vertex="1" parent="1">
          <mxGeometry x="362.5" y="376" width="165" height="30" as="geometry" />
        </mxCell>
        <mxCell id="j3L5sBF7JgKgHJlYHV1M-89" value="&lt;span style=&quot;font-size: 18px;&quot;&gt;Unassigned Ticket&lt;/span&gt;" style="text;html=1;strokeColor=none;fillColor=none;align=center;verticalAlign=middle;whiteSpace=wrap;rounded=0;" vertex="1" parent="1">
          <mxGeometry x="792.5" y="376" width="165" height="30" as="geometry" />
        </mxCell>
        <mxCell id="WS2nMF6Hr6QbwiyznQPr-77" value="" style="shape=table;html=1;whiteSpace=wrap;startSize=0;container=1;collapsible=0;childLayout=tableLayout;strokeWidth=2;" vertex="1" parent="1">
          <mxGeometry x="275" y="431" width="340" height="80" as="geometry" />
        </mxCell>
        <mxCell id="WS2nMF6Hr6QbwiyznQPr-78" value="" style="shape=tableRow;horizontal=0;startSize=0;swimlaneHead=0;swimlaneBody=0;top=0;left=0;bottom=0;right=0;collapsible=0;dropTarget=0;fillColor=none;points=[[0,0.5],[1,0.5]];portConstraint=eastwest;" vertex="1" parent="WS2nMF6Hr6QbwiyznQPr-77">
          <mxGeometry width="340" height="27" as="geometry" />
        </mxCell>
        <mxCell id="WS2nMF6Hr6QbwiyznQPr-79" value="ID Ticket" style="shape=partialRectangle;html=1;whiteSpace=wrap;connectable=0;fillColor=none;top=0;left=0;bottom=0;right=0;overflow=hidden;fontStyle=1" vertex="1" parent="WS2nMF6Hr6QbwiyznQPr-78">
          <mxGeometry width="70" height="27" as="geometry">
            <mxRectangle width="70" height="27" as="alternateBounds" />
          </mxGeometry>
        </mxCell>
        <mxCell id="WS2nMF6Hr6QbwiyznQPr-80" value="Ticket Name" style="shape=partialRectangle;html=1;whiteSpace=wrap;connectable=0;fillColor=none;top=0;left=0;bottom=0;right=0;overflow=hidden;fontStyle=1" vertex="1" parent="WS2nMF6Hr6QbwiyznQPr-78">
          <mxGeometry x="70" width="80" height="27" as="geometry">
            <mxRectangle width="80" height="27" as="alternateBounds" />
          </mxGeometry>
        </mxCell>
        <mxCell id="WS2nMF6Hr6QbwiyznQPr-87" value="Customer Name" style="shape=partialRectangle;html=1;whiteSpace=wrap;connectable=0;fillColor=none;top=0;left=0;bottom=0;right=0;overflow=hidden;fontStyle=1" vertex="1" parent="WS2nMF6Hr6QbwiyznQPr-78">
          <mxGeometry x="150" width="100" height="27" as="geometry">
            <mxRectangle width="100" height="27" as="alternateBounds" />
          </mxGeometry>
        </mxCell>
        <mxCell id="9vrl3xFwg7fBHi3u2RIC-1" value="Status" style="shape=partialRectangle;html=1;whiteSpace=wrap;connectable=0;fillColor=none;top=0;left=0;bottom=0;right=0;overflow=hidden;fontStyle=1" vertex="1" parent="WS2nMF6Hr6QbwiyznQPr-78">
          <mxGeometry x="250" width="90" height="27" as="geometry">
            <mxRectangle width="90" height="27" as="alternateBounds" />
          </mxGeometry>
        </mxCell>
        <mxCell id="WS2nMF6Hr6QbwiyznQPr-84" value="" style="shape=tableRow;horizontal=0;startSize=0;swimlaneHead=0;swimlaneBody=0;top=0;left=0;bottom=0;right=0;collapsible=0;dropTarget=0;fillColor=none;points=[[0,0.5],[1,0.5]];portConstraint=eastwest;" vertex="1" parent="WS2nMF6Hr6QbwiyznQPr-77">
          <mxGeometry y="27" width="340" height="27" as="geometry" />
        </mxCell>
        <mxCell id="WS2nMF6Hr6QbwiyznQPr-85" value="" style="shape=partialRectangle;html=1;whiteSpace=wrap;connectable=0;fillColor=none;top=0;left=0;bottom=0;right=0;overflow=hidden;" vertex="1" parent="WS2nMF6Hr6QbwiyznQPr-84">
          <mxGeometry width="70" height="27" as="geometry">
            <mxRectangle width="70" height="27" as="alternateBounds" />
          </mxGeometry>
        </mxCell>
        <mxCell id="WS2nMF6Hr6QbwiyznQPr-86" value="" style="shape=partialRectangle;html=1;whiteSpace=wrap;connectable=0;fillColor=none;top=0;left=0;bottom=0;right=0;overflow=hidden;" vertex="1" parent="WS2nMF6Hr6QbwiyznQPr-84">
          <mxGeometry x="70" width="80" height="27" as="geometry">
            <mxRectangle width="80" height="27" as="alternateBounds" />
          </mxGeometry>
        </mxCell>
        <mxCell id="WS2nMF6Hr6QbwiyznQPr-88" style="shape=partialRectangle;html=1;whiteSpace=wrap;connectable=0;fillColor=none;top=0;left=0;bottom=0;right=0;overflow=hidden;" vertex="1" parent="WS2nMF6Hr6QbwiyznQPr-84">
          <mxGeometry x="150" width="100" height="27" as="geometry">
            <mxRectangle width="100" height="27" as="alternateBounds" />
          </mxGeometry>
        </mxCell>
        <mxCell id="9vrl3xFwg7fBHi3u2RIC-2" style="shape=partialRectangle;html=1;whiteSpace=wrap;connectable=0;fillColor=none;top=0;left=0;bottom=0;right=0;overflow=hidden;" vertex="1" parent="WS2nMF6Hr6QbwiyznQPr-84">
          <mxGeometry x="250" width="90" height="27" as="geometry">
            <mxRectangle width="90" height="27" as="alternateBounds" />
          </mxGeometry>
        </mxCell>
        <mxCell id="WS2nMF6Hr6QbwiyznQPr-81" value="" style="shape=tableRow;horizontal=0;startSize=0;swimlaneHead=0;swimlaneBody=0;top=0;left=0;bottom=0;right=0;collapsible=0;dropTarget=0;fillColor=none;points=[[0,0.5],[1,0.5]];portConstraint=eastwest;" vertex="1" parent="WS2nMF6Hr6QbwiyznQPr-77">
          <mxGeometry y="54" width="340" height="26" as="geometry" />
        </mxCell>
        <mxCell id="WS2nMF6Hr6QbwiyznQPr-82" value="" style="shape=partialRectangle;html=1;whiteSpace=wrap;connectable=0;fillColor=none;top=0;left=0;bottom=0;right=0;overflow=hidden;" vertex="1" parent="WS2nMF6Hr6QbwiyznQPr-81">
          <mxGeometry width="70" height="26" as="geometry">
            <mxRectangle width="70" height="26" as="alternateBounds" />
          </mxGeometry>
        </mxCell>
        <mxCell id="WS2nMF6Hr6QbwiyznQPr-83" value="" style="shape=partialRectangle;html=1;whiteSpace=wrap;connectable=0;fillColor=none;top=0;left=0;bottom=0;right=0;overflow=hidden;" vertex="1" parent="WS2nMF6Hr6QbwiyznQPr-81">
          <mxGeometry x="70" width="80" height="26" as="geometry">
            <mxRectangle width="80" height="26" as="alternateBounds" />
          </mxGeometry>
        </mxCell>
        <mxCell id="WS2nMF6Hr6QbwiyznQPr-89" style="shape=partialRectangle;html=1;whiteSpace=wrap;connectable=0;fillColor=none;top=0;left=0;bottom=0;right=0;overflow=hidden;" vertex="1" parent="WS2nMF6Hr6QbwiyznQPr-81">
          <mxGeometry x="150" width="100" height="26" as="geometry">
            <mxRectangle width="100" height="26" as="alternateBounds" />
          </mxGeometry>
        </mxCell>
        <mxCell id="9vrl3xFwg7fBHi3u2RIC-3" style="shape=partialRectangle;html=1;whiteSpace=wrap;connectable=0;fillColor=none;top=0;left=0;bottom=0;right=0;overflow=hidden;" vertex="1" parent="WS2nMF6Hr6QbwiyznQPr-81">
          <mxGeometry x="250" width="90" height="26" as="geometry">
            <mxRectangle width="90" height="26" as="alternateBounds" />
          </mxGeometry>
        </mxCell>
        <mxCell id="tX4Zf7Saju63hx7ulZdr-1" value="In Progress" style="rounded=1;whiteSpace=wrap;html=1;fillColor=#ffe6cc;strokeColor=#d79b00;" vertex="1" parent="1">
          <mxGeometry x="528.5" y="461.5" width="82.5" height="20" as="geometry" />
        </mxCell>
        <mxCell id="tX4Zf7Saju63hx7ulZdr-2" value="In Progress" style="rounded=1;whiteSpace=wrap;html=1;fillColor=#ffe6cc;strokeColor=#d79b00;" vertex="1" parent="1">
          <mxGeometry x="528.5" y="488" width="82.5" height="20" as="geometry" />
        </mxCell>
        <mxCell id="tX4Zf7Saju63hx7ulZdr-3" value="" style="shape=table;html=1;whiteSpace=wrap;startSize=0;container=1;collapsible=0;childLayout=tableLayout;strokeWidth=2;" vertex="1" parent="1">
          <mxGeometry x="705" y="426" width="340" height="80" as="geometry" />
        </mxCell>
        <mxCell id="tX4Zf7Saju63hx7ulZdr-4" value="" style="shape=tableRow;horizontal=0;startSize=0;swimlaneHead=0;swimlaneBody=0;top=0;left=0;bottom=0;right=0;collapsible=0;dropTarget=0;fillColor=none;points=[[0,0.5],[1,0.5]];portConstraint=eastwest;" vertex="1" parent="tX4Zf7Saju63hx7ulZdr-3">
          <mxGeometry width="340" height="27" as="geometry" />
        </mxCell>
        <mxCell id="tX4Zf7Saju63hx7ulZdr-5" value="ID Ticket" style="shape=partialRectangle;html=1;whiteSpace=wrap;connectable=0;fillColor=none;top=0;left=0;bottom=0;right=0;overflow=hidden;fontStyle=1" vertex="1" parent="tX4Zf7Saju63hx7ulZdr-4">
          <mxGeometry width="70" height="27" as="geometry">
            <mxRectangle width="70" height="27" as="alternateBounds" />
          </mxGeometry>
        </mxCell>
        <mxCell id="tX4Zf7Saju63hx7ulZdr-6" value="Ticket Name" style="shape=partialRectangle;html=1;whiteSpace=wrap;connectable=0;fillColor=none;top=0;left=0;bottom=0;right=0;overflow=hidden;fontStyle=1" vertex="1" parent="tX4Zf7Saju63hx7ulZdr-4">
          <mxGeometry x="70" width="80" height="27" as="geometry">
            <mxRectangle width="80" height="27" as="alternateBounds" />
          </mxGeometry>
        </mxCell>
        <mxCell id="tX4Zf7Saju63hx7ulZdr-7" value="Customer Name" style="shape=partialRectangle;html=1;whiteSpace=wrap;connectable=0;fillColor=none;top=0;left=0;bottom=0;right=0;overflow=hidden;fontStyle=1" vertex="1" parent="tX4Zf7Saju63hx7ulZdr-4">
          <mxGeometry x="150" width="100" height="27" as="geometry">
            <mxRectangle width="100" height="27" as="alternateBounds" />
          </mxGeometry>
        </mxCell>
        <mxCell id="tX4Zf7Saju63hx7ulZdr-8" value="Status" style="shape=partialRectangle;html=1;whiteSpace=wrap;connectable=0;fillColor=none;top=0;left=0;bottom=0;right=0;overflow=hidden;fontStyle=1" vertex="1" parent="tX4Zf7Saju63hx7ulZdr-4">
          <mxGeometry x="250" width="90" height="27" as="geometry">
            <mxRectangle width="90" height="27" as="alternateBounds" />
          </mxGeometry>
        </mxCell>
        <mxCell id="tX4Zf7Saju63hx7ulZdr-9" value="" style="shape=tableRow;horizontal=0;startSize=0;swimlaneHead=0;swimlaneBody=0;top=0;left=0;bottom=0;right=0;collapsible=0;dropTarget=0;fillColor=none;points=[[0,0.5],[1,0.5]];portConstraint=eastwest;" vertex="1" parent="tX4Zf7Saju63hx7ulZdr-3">
          <mxGeometry y="27" width="340" height="27" as="geometry" />
        </mxCell>
        <mxCell id="tX4Zf7Saju63hx7ulZdr-10" value="" style="shape=partialRectangle;html=1;whiteSpace=wrap;connectable=0;fillColor=none;top=0;left=0;bottom=0;right=0;overflow=hidden;" vertex="1" parent="tX4Zf7Saju63hx7ulZdr-9">
          <mxGeometry width="70" height="27" as="geometry">
            <mxRectangle width="70" height="27" as="alternateBounds" />
          </mxGeometry>
        </mxCell>
        <mxCell id="tX4Zf7Saju63hx7ulZdr-11" value="" style="shape=partialRectangle;html=1;whiteSpace=wrap;connectable=0;fillColor=none;top=0;left=0;bottom=0;right=0;overflow=hidden;" vertex="1" parent="tX4Zf7Saju63hx7ulZdr-9">
          <mxGeometry x="70" width="80" height="27" as="geometry">
            <mxRectangle width="80" height="27" as="alternateBounds" />
          </mxGeometry>
        </mxCell>
        <mxCell id="tX4Zf7Saju63hx7ulZdr-12" style="shape=partialRectangle;html=1;whiteSpace=wrap;connectable=0;fillColor=none;top=0;left=0;bottom=0;right=0;overflow=hidden;" vertex="1" parent="tX4Zf7Saju63hx7ulZdr-9">
          <mxGeometry x="150" width="100" height="27" as="geometry">
            <mxRectangle width="100" height="27" as="alternateBounds" />
          </mxGeometry>
        </mxCell>
        <mxCell id="tX4Zf7Saju63hx7ulZdr-13" style="shape=partialRectangle;html=1;whiteSpace=wrap;connectable=0;fillColor=none;top=0;left=0;bottom=0;right=0;overflow=hidden;" vertex="1" parent="tX4Zf7Saju63hx7ulZdr-9">
          <mxGeometry x="250" width="90" height="27" as="geometry">
            <mxRectangle width="90" height="27" as="alternateBounds" />
          </mxGeometry>
        </mxCell>
        <mxCell id="tX4Zf7Saju63hx7ulZdr-14" value="" style="shape=tableRow;horizontal=0;startSize=0;swimlaneHead=0;swimlaneBody=0;top=0;left=0;bottom=0;right=0;collapsible=0;dropTarget=0;fillColor=none;points=[[0,0.5],[1,0.5]];portConstraint=eastwest;" vertex="1" parent="tX4Zf7Saju63hx7ulZdr-3">
          <mxGeometry y="54" width="340" height="26" as="geometry" />
        </mxCell>
        <mxCell id="tX4Zf7Saju63hx7ulZdr-15" value="" style="shape=partialRectangle;html=1;whiteSpace=wrap;connectable=0;fillColor=none;top=0;left=0;bottom=0;right=0;overflow=hidden;" vertex="1" parent="tX4Zf7Saju63hx7ulZdr-14">
          <mxGeometry width="70" height="26" as="geometry">
            <mxRectangle width="70" height="26" as="alternateBounds" />
          </mxGeometry>
        </mxCell>
        <mxCell id="tX4Zf7Saju63hx7ulZdr-16" value="" style="shape=partialRectangle;html=1;whiteSpace=wrap;connectable=0;fillColor=none;top=0;left=0;bottom=0;right=0;overflow=hidden;" vertex="1" parent="tX4Zf7Saju63hx7ulZdr-14">
          <mxGeometry x="70" width="80" height="26" as="geometry">
            <mxRectangle width="80" height="26" as="alternateBounds" />
          </mxGeometry>
        </mxCell>
        <mxCell id="tX4Zf7Saju63hx7ulZdr-17" style="shape=partialRectangle;html=1;whiteSpace=wrap;connectable=0;fillColor=none;top=0;left=0;bottom=0;right=0;overflow=hidden;" vertex="1" parent="tX4Zf7Saju63hx7ulZdr-14">
          <mxGeometry x="150" width="100" height="26" as="geometry">
            <mxRectangle width="100" height="26" as="alternateBounds" />
          </mxGeometry>
        </mxCell>
        <mxCell id="tX4Zf7Saju63hx7ulZdr-18" style="shape=partialRectangle;html=1;whiteSpace=wrap;connectable=0;fillColor=none;top=0;left=0;bottom=0;right=0;overflow=hidden;" vertex="1" parent="tX4Zf7Saju63hx7ulZdr-14">
          <mxGeometry x="250" width="90" height="26" as="geometry">
            <mxRectangle width="90" height="26" as="alternateBounds" />
          </mxGeometry>
        </mxCell>
        <mxCell id="VwR0hIE2NW9wEr2rpQsA-1" value="Open" style="rounded=1;whiteSpace=wrap;html=1;fillColor=#f8cecc;strokeColor=#b85450;" vertex="1" parent="1">
          <mxGeometry x="958.5" y="456.5" width="82" height="20" as="geometry" />
        </mxCell>
        <mxCell id="VwR0hIE2NW9wEr2rpQsA-2" value="Open" style="rounded=1;whiteSpace=wrap;html=1;fillColor=#f8cecc;strokeColor=#b85450;" vertex="1" parent="1">
          <mxGeometry x="958.5" y="483" width="82" height="20" as="geometry" />
        </mxCell>
        <mxCell id="VwR0hIE2NW9wEr2rpQsA-3" value="" style="ellipse;whiteSpace=wrap;html=1;aspect=fixed;fillColor=none;" vertex="1" parent="1">
          <mxGeometry x="350" y="127.5" width="172.5" height="172.5" as="geometry" />
        </mxCell>
        <mxCell id="VwR0hIE2NW9wEr2rpQsA-4" value="" style="ellipse;whiteSpace=wrap;html=1;aspect=fixed;fillColor=none;" vertex="1" parent="1">
          <mxGeometry x="788.75" y="127.5" width="172.5" height="172.5" as="geometry" />
        </mxCell>
        <mxCell id="VwR0hIE2NW9wEr2rpQsA-5" value="&lt;font style=&quot;font-size: 55px;&quot;&gt;&lt;font style=&quot;font-size: 55px;&quot;&gt;2/&lt;/font&gt;&lt;font style=&quot;font-size: 55px;&quot;&gt;12&lt;/font&gt;&lt;/font&gt;" style="text;html=1;align=center;verticalAlign=middle;whiteSpace=wrap;rounded=0;" vertex="1" parent="1">
          <mxGeometry x="835" y="160" width="80" height="60" as="geometry" />
        </mxCell>
        <mxCell id="VwR0hIE2NW9wEr2rpQsA-6" value="&lt;font style=&quot;font-size: 16px;&quot;&gt;Ticket Completed&lt;/font&gt;" style="text;html=1;align=center;verticalAlign=middle;whiteSpace=wrap;rounded=0;" vertex="1" parent="1">
          <mxGeometry x="845" y="240" width="60" height="30" as="geometry" />
        </mxCell>
        <mxCell id="VwR0hIE2NW9wEr2rpQsA-7" value="&lt;font style=&quot;font-size: 55px;&quot;&gt;&lt;font style=&quot;font-size: 55px;&quot;&gt;4/&lt;/font&gt;&lt;font style=&quot;font-size: 55px;&quot;&gt;12&lt;/font&gt;&lt;/font&gt;" style="text;html=1;align=center;verticalAlign=middle;whiteSpace=wrap;rounded=0;" vertex="1" parent="1">
          <mxGeometry x="396.25" y="158.75" width="80" height="60" as="geometry" />
        </mxCell>
        <mxCell id="VwR0hIE2NW9wEr2rpQsA-8" value="&lt;font style=&quot;font-size: 16px;&quot;&gt;Ticket Assigned to You&lt;/font&gt;" style="text;html=1;align=center;verticalAlign=middle;whiteSpace=wrap;rounded=0;" vertex="1" parent="1">
          <mxGeometry x="384.38" y="240" width="103.75" height="30" as="geometry" />
        </mxCell>
        <mxCell id="YJYCGi075Gf-jiFTGEZ--1" value="&lt;font style=&quot;font-size: 17px;&quot;&gt;&lt;b&gt;Sat, 19 Oct 2024&lt;/b&gt;&lt;/font&gt;&lt;div style=&quot;font-size: 14px;&quot;&gt;&lt;font style=&quot;font-size: 14px;&quot;&gt;Week 41&lt;/font&gt;&lt;/div&gt;" style="rounded=0;whiteSpace=wrap;html=1;" vertex="1" parent="1">
          <mxGeometry x="590" y="178.75" width="140" height="70" as="geometry" />
        </mxCell>
      </root>
    </mxGraphModel>
  </diagram>
</mxfile>
